<svg width="49" height="35" viewBox="0 0 49 35" fill="none" xmlns="http://www.w3.org/2000/svg">
<path fill-rule="evenodd" clip-rule="evenodd" d="M5.65222 19L18.4936 32.0092C18.8178 32.3377 19 32.7834 19 33.248C19 33.7127 18.8178 34.1583 18.4936 34.4869C18.1694 34.8154 17.7296 35 17.271 35C16.8125 35 16.3727 34.8154 16.0485 34.4869L0.50731 18.7388C0.3465 18.5763 0.218915 18.3832 0.131862 18.1706C0.0448098 17.9581 0 17.7302 0 17.5C0 17.2698 0.0448098 17.042 0.131862 16.8294C0.218915 16.6168 0.3465 16.4237 0.50731 16.2612L16.0485 0.513145C16.3727 0.184584 16.8125 0 17.271 0C17.7296 0 18.1694 0.184584 18.4936 0.513145C18.8178 0.841707 19 1.28733 19 1.75199C19 2.21665 18.8178 2.66227 18.4936 2.99083L5.65222 16H46.8636C47.4302 16 47.9736 16.158 48.3743 16.4393C48.7749 16.7206 49 17.1022 49 17.5C49 17.8978 48.7749 18.2794 48.3743 18.5607C47.9736 18.842 47.4302 19 46.8636 19H5.65222Z" fill="white"/>
</svg>
