<svg width="20" height="20" viewBox="0 0 20 20" fill="none" xmlns="http://www.w3.org/2000/svg">
<g id="Group 8">
<path id="Vector" d="M11.9479 11.3439C11.4113 11.953 10.7579 12.4515 10.0225 12.8128V14.8895C10.0225 15.0731 9.94928 15.2492 9.81893 15.379C9.68858 15.5088 9.51178 15.5817 9.32743 15.5817H5.15693C4.97258 15.5817 4.79578 15.5088 4.66543 15.379C4.53508 15.2492 4.46184 15.0731 4.46184 14.8895V12.8128C2.99709 12.0847 1.8773 10.8137 1.34278 9.27268C0.808268 7.73165 0.901617 6.04335 1.6028 4.57009C2.30398 3.09682 3.55712 1.956 5.0933 1.39243C6.62947 0.828866 8.32627 0.887467 9.81955 1.55566M4.46184 19H10.0225" stroke="white" stroke-width="1.38447" stroke-linecap="round" stroke-linejoin="round"/>
<path id="Vector_2" d="M10.5426 5.75618C10.0546 5.67173 10.0546 4.97396 10.5426 4.88951C11.4066 4.73975 12.2062 4.33716 12.8395 3.73306C13.4728 3.12896 13.9112 2.35072 14.0986 1.49755L14.1278 1.36187C14.2335 0.881459 14.9202 0.87869 15.0301 1.35772L15.0662 1.51416C15.2609 2.36347 15.7032 3.13656 16.3376 3.73634C16.972 4.33613 17.7702 4.73586 18.632 4.88535C19.1227 4.97119 19.1227 5.67173 18.632 5.75757C17.7705 5.90731 16.9726 6.30715 16.3384 6.90692C15.7043 7.50668 15.2622 8.27964 15.0676 9.12876L15.0315 9.2852C14.9216 9.76423 14.2349 9.76146 14.1292 9.28105L14.1014 9.14676C13.9138 8.29321 13.475 7.51469 12.8412 6.91055C12.2073 6.30642 11.4071 5.90543 10.5426 5.75618Z" stroke="white" stroke-width="1.38447" stroke-linecap="round" stroke-linejoin="round"/>
</g>
</svg>
