<svg xmlns="http://www.w3.org/2000/svg" width="60" height="56" viewBox="0 0 60 56" fill="none">
<path d="M12 48.1561L5.1 55.0786C4.15 56.0317 3.062 56.2454 1.836 55.7197C0.610005 55.194 -0.00199511 54.2529 4.88599e-06 52.8965V6.01952C4.88599e-06 4.36415 0.588005 2.94756 1.764 1.76974C2.94 0.591919 4.352 0.00200651 6 0H54C55.65 0 57.063 0.589913 58.239 1.76974C59.415 2.94956 60.002 4.36616 60 6.01952V42.1366C60 43.792 59.413 45.2096 58.239 46.3894C57.065 47.5692 55.652 48.1582 54 48.1561H12ZM30 39.1269C30.85 39.1269 31.563 38.8379 32.139 38.2601C32.715 37.6822 33.002 36.9679 33 36.1171C33 35.2643 32.712 34.55 32.136 33.9742C31.56 33.3983 30.848 33.1094 30 33.1073C29.15 33.1073 28.438 33.3963 27.864 33.9742C27.29 34.552 27.002 35.2663 27 36.1171C27 36.9699 27.288 37.6852 27.864 38.2631C28.44 38.8409 29.152 39.1289 30 39.1269ZM30 27.0878C30.85 27.0878 31.563 26.7989 32.139 26.221C32.715 25.6431 33.002 24.9288 33 24.0781V12.039C33 11.1863 32.712 10.472 32.136 9.89609C31.56 9.32022 30.848 9.03128 30 9.02928C29.15 9.02928 28.438 9.31821 27.864 9.89609C27.29 10.474 27.002 11.1883 27 12.039V24.0781C27 24.9308 27.288 25.6462 27.864 26.224C28.44 26.8019 29.152 27.0898 30 27.0878Z" fill="#FF7070"/>
</svg>