<svg width="27" height="24" viewBox="0 0 27 24" fill="none" xmlns="http://www.w3.org/2000/svg">
<path d="M0.5 2.41667C0.5 2.04195 0.649753 1.68194 0.917323 1.41603C1.185 1.15 1.5487 1 1.92857 1H25.0714C25.4513 1 25.815 1.15 26.0827 1.41603C26.3502 1.68194 26.5 2.04194 26.5 2.41667C26.5 2.79139 26.3502 3.15139 26.0827 3.41731C25.815 3.68333 25.4513 3.83333 25.0714 3.83333H1.92857C1.5487 3.83333 1.185 3.68333 0.917322 3.41731C0.649753 3.15139 0.5 2.79139 0.5 2.41667ZM0.5 12C0.5 11.6253 0.649753 11.2653 0.917322 10.9994C1.185 10.7333 1.5487 10.5833 1.92857 10.5833H25.0714C25.4513 10.5833 25.815 10.7333 26.0827 10.9994C26.3502 11.2653 26.5 11.6253 26.5 12C26.5 12.3747 26.3502 12.7347 26.0827 13.0006C25.815 13.2667 25.4513 13.4167 25.0714 13.4167H1.92857C1.5487 13.4167 1.185 13.2667 0.917322 13.0006C0.649753 12.7347 0.5 12.3747 0.5 12ZM0.5 21.5833C0.5 21.2086 0.649752 20.8486 0.917323 20.5827C1.185 20.3167 1.5487 20.1667 1.92857 20.1667H25.0714C25.4513 20.1667 25.815 20.3167 26.0827 20.5827C26.3502 20.8486 26.5 21.2086 26.5 21.5833C26.5 21.9581 26.3502 22.3181 26.0827 22.584C25.815 22.85 25.4513 23 25.0714 23H1.92857C1.5487 23 1.185 22.85 0.917323 22.584C0.649753 22.3181 0.5 21.9581 0.5 21.5833Z" fill="#fff" stroke="#fff"/>
</svg>
