<svg width="56" height="53" viewBox="0 0 56 53" fill="none" xmlns="http://www.w3.org/2000/svg">
<mask id="mask0_971_232" style="mask-type:alpha" maskUnits="userSpaceOnUse" x="21" y="0" width="35" height="47">
<path d="M24.969 12.0876C26.5234 5.02805 32.7789 0 40.0075 0C48.512 0 55.4062 6.89424 55.4062 15.3987V29.8469C55.4062 39.3867 47.5454 47.0521 38.0087 46.812C27.3433 46.5435 19.5682 36.6169 21.8623 26.1978L24.969 12.0876Z" fill="#D9D9D9"/>
</mask>
<g mask="url(#mask0_971_232)">
<circle cx="27.8438" cy="23.0625" r="19.6875" stroke="url(#paint0_linear_971_232)" stroke-width="5.625"/>
</g>
<mask id="mask1_971_232" style="mask-type:alpha" maskUnits="userSpaceOnUse" x="0" y="3" width="42" height="50">
<path d="M30.6562 52.0312H0V3.375L41.9062 4.35938L30.6562 52.0312Z" fill="#D9D9D9"/>
</mask>
<g mask="url(#mask1_971_232)">
<path d="M12.9375 22.7812C12.9375 22.7635 12.9379 22.6855 13.0313 22.5201C13.1331 22.3399 13.3381 22.0722 13.7234 21.742C14.5112 21.0668 15.8162 20.3313 17.6736 19.658C21.365 18.3199 26.6507 17.4375 32.625 17.4375C38.5993 17.4375 43.885 18.3199 47.5764 19.658C49.4338 20.3313 50.7388 21.0668 51.5266 21.742C51.9119 22.0722 52.1169 22.3399 52.2187 22.5201C52.3121 22.6855 52.3125 22.7635 52.3125 22.7812C52.3125 22.799 52.3121 22.877 52.2187 23.0424C52.1169 23.2226 51.9119 23.4903 51.5266 23.8205C50.7388 24.4957 49.4338 25.2312 47.5764 25.9045C43.885 27.2426 38.5993 28.125 32.625 28.125C26.6507 28.125 21.365 27.2426 17.6736 25.9045C15.8162 25.2312 14.5112 24.4957 13.7234 23.8205C13.3381 23.4903 13.1331 23.2226 13.0313 23.0424C12.9379 22.877 12.9375 22.799 12.9375 22.7812Z" stroke="url(#paint1_linear_971_232)" stroke-width="5.625"/>
</g>
<defs>
<linearGradient id="paint0_linear_971_232" x1="35" y1="18.5" x2="49.5873" y2="23.7471" gradientUnits="userSpaceOnUse">
<stop stop-color="#FF9970"/>
<stop offset="1" stop-color="#FFD970"/>
</linearGradient>
<linearGradient id="paint1_linear_971_232" x1="32.625" y1="30.9375" x2="32.625" y2="14.625" gradientUnits="userSpaceOnUse">
<stop stop-color="#9C70FF"/>
<stop offset="1" stop-color="#C970FF"/>
</linearGradient>
</defs>
</svg>
