<svg width="40" height="45" viewBox="0 0 40 45" fill="none" xmlns="http://www.w3.org/2000/svg">
<path d="M31.7567 22.1526C31.7567 23.7941 30.4408 25.1248 28.8175 25.1248C27.1943 25.1248 25.8783 23.7941 25.8783 22.1526C25.8783 20.511 27.1943 19.1803 28.8175 19.1803C30.4408 19.1803 31.7567 20.511 31.7567 22.1526Z" fill="white"/>
<path fill-rule="evenodd" clip-rule="evenodd" d="M33.6258 12.0178C31.7405 11.7496 29.3104 11.7496 26.2816 11.7497H13.7184C10.6896 11.7496 8.25955 11.7496 6.37419 12.0178C4.42361 12.2952 2.79901 12.8905 1.59119 14.2856C0.38337 15.6806 0.0145586 17.3878 0.000420447 19.3797C-0.0132448 21.305 0.30795 23.7408 0.708287 26.7768L1.52042 32.9364C1.83333 35.3099 2.0866 37.231 2.48036 38.7352C2.89022 40.301 3.49531 41.5992 4.63073 42.6045C5.76615 43.6098 7.1186 44.0447 8.70757 44.2486C10.2341 44.4445 12.1506 44.4445 14.5185 44.4444H25.4815C27.8494 44.4445 29.7659 44.4445 31.2924 44.2486C32.8814 44.0447 34.2339 43.6098 35.3693 42.6045C36.5047 41.5992 37.1098 40.301 37.5196 38.7352C37.9134 37.231 38.1667 35.3099 38.4796 32.9363L39.2917 26.7768C39.6921 23.7408 40.0132 21.305 39.9996 19.3797C39.9854 17.3878 39.6166 15.6806 38.4088 14.2856C37.201 12.8905 35.5764 12.2952 33.6258 12.0178ZM6.78354 14.961C5.16819 15.1908 4.35116 15.6098 3.80258 16.2435C3.25399 16.8771 2.95123 17.7515 2.93952 19.401C2.92751 21.0928 3.21783 23.321 3.63694 26.4997L3.74807 27.3426L4.57381 26.7378C6.70468 25.1772 9.85306 25.2539 11.8795 26.9501L19.4002 33.2451C20.111 33.8401 21.3358 33.9512 22.2197 33.4313L22.7425 33.1237C25.2432 31.6527 28.5946 31.8079 30.9021 33.5461L34.9729 36.6128C35.1735 35.5115 35.3534 34.1576 35.5793 32.4442L36.3631 26.4997C36.7822 23.321 37.0725 21.0928 37.0605 19.401C37.0488 17.7515 36.746 16.8771 36.1974 16.2435C35.6488 15.6098 34.8318 15.1908 33.2165 14.961C31.5598 14.7254 29.3373 14.7219 26.1662 14.7219H13.8338C10.6627 14.7219 8.44023 14.7254 6.78354 14.961Z" fill="white"/>
<path d="M13.0197 1.53296e-05H26.9799C27.4449 -0.000112338 27.8013 -0.000210131 28.113 0.0336595C30.3286 0.274475 32.1421 1.75461 32.9111 3.74836H7.08847C7.8575 1.75461 9.67101 0.274476 11.8866 0.0336595C12.1983 -0.00021026 12.5547 -0.000112338 13.0197 1.53296e-05Z" fill="white"/>
<path d="M8.62095 5.55556C5.8397 5.55556 3.55917 7.42165 2.79811 9.89727C2.78225 9.94888 2.76704 10.0008 2.7525 10.0529C3.5488 9.78495 4.37753 9.60991 5.21646 9.49041C7.37721 9.18262 10.1079 9.18278 13.2799 9.18297L13.5168 9.18298L27.0641 9.18297C30.2362 9.18278 32.9669 9.18262 35.1276 9.49041C35.9666 9.60991 36.7953 9.78495 37.5916 10.0529C37.5771 10.0008 37.5618 9.94889 37.546 9.89727C36.7849 7.42165 34.5044 5.55556 31.7231 5.55556H8.62095Z" fill="white"/>
</svg>
