<svg width="20" height="22" viewBox="0 0 20 22" fill="none" xmlns="http://www.w3.org/2000/svg">
<path fill-rule="evenodd" clip-rule="evenodd" d="M10.92 0.102472C10.3959 -0.0651784 9.82724 -0.0260164 9.33125 0.211888C9.06049 0.340769 8.82114 0.526912 8.62985 0.757369C8.43856 0.987827 8.29992 1.25707 8.22357 1.54636L7.73537 3.42076C7.59552 3.95908 7.39169 4.47883 7.1282 4.96895C6.77333 5.63261 6.20821 6.19196 5.53642 6.7687L4.05952 8.03671C3.7621 8.29239 3.52984 8.61483 3.38184 8.9775C3.23384 9.34017 3.17435 9.7327 3.20825 10.1228L4.04208 19.7279C4.09545 20.3437 4.37837 20.9171 4.835 21.3351C5.29164 21.7531 5.88882 21.9853 6.50872 21.9858H11.2769C15.2009 21.9858 18.5855 19.2565 19.2399 15.4852L19.9629 11.3131C20.2255 9.80271 19.0604 8.42018 17.5219 8.42018H12.2092C12.1968 8.42021 12.1845 8.41753 12.1732 8.41233C12.162 8.40714 12.152 8.39955 12.144 8.3901C12.1359 8.38065 12.1301 8.36957 12.1268 8.35763C12.1236 8.34569 12.123 8.33318 12.1251 8.32099L12.8051 4.18565C12.9333 3.40849 12.8963 2.61292 12.6984 1.85007C12.4871 1.04018 11.8656 0.406179 11.0687 0.150533L10.92 0.102472ZM1.27767 8.61114C1.12859 8.48061 0.934694 8.41256 0.736481 8.4212C0.538213 8.42964 0.350888 8.51313 0.213655 8.65606C0.0764215 8.79898 -0.000100651 8.98925 8.00604e-05 9.18712V20.7209C-0.001857 20.8928 0.031375 21.0633 0.0977461 21.2219C0.164117 21.3806 0.262234 21.5241 0.386105 21.6437C0.509976 21.7633 0.657 21.8565 0.818198 21.9176C0.979395 21.9786 1.15138 22.0063 1.32366 21.9988C1.49593 21.9914 1.66487 21.949 1.82016 21.8743C1.97546 21.7995 2.11384 21.694 2.22687 21.5642C2.33989 21.4343 2.42518 21.2829 2.47753 21.1191C2.52988 20.9553 2.54818 20.7825 2.53133 20.6114L1.53647 9.12167C1.51947 8.92458 1.42674 8.74167 1.27767 8.61114Z" fill="#219FFD"/>
</svg>
