<svg width="20" height="22" viewBox="0 0 20 22" fill="none" xmlns="http://www.w3.org/2000/svg">
<path fill-rule="evenodd" clip-rule="evenodd" d="M10.4492 1.56272C10.301 1.51559 10.1403 1.52656 9.99996 1.5934C9.9304 1.6255 9.86869 1.67232 9.81909 1.73059C9.7695 1.78886 9.73323 1.8572 9.71279 1.93085L9.22459 3.80627C9.05404 4.46171 8.80616 5.09468 8.48613 5.69192C7.9887 6.61941 7.23692 7.33215 6.53949 7.93138L5.06464 9.19939C4.95181 9.29642 4.8637 9.41876 4.80754 9.55635C4.75137 9.69394 4.72876 9.84286 4.74156 9.99087L5.57437 19.596C5.59463 19.8293 5.70179 20.0466 5.87473 20.205C6.04768 20.3634 6.27386 20.4515 6.50872 20.4519H11.2769C14.4932 20.4519 17.204 18.2206 17.724 15.2234L18.447 11.0513C18.4705 10.9168 18.4642 10.7789 18.4286 10.6471C18.393 10.5153 18.329 10.3929 18.2409 10.2884C18.1529 10.1839 18.043 10.0998 17.919 10.0421C17.795 9.9843 17.6598 9.95427 17.5229 9.95405H12.2092C11.2071 9.95405 10.4451 9.05827 10.6071 8.0725L11.2871 3.93717C11.3803 3.37075 11.3537 2.79118 11.2092 2.23558C11.1684 2.0885 11.091 1.95409 10.9841 1.84485C10.8772 1.73562 10.7444 1.6551 10.5979 1.61078L10.4492 1.56272ZM9.33125 0.211888C9.82724 -0.0260164 10.3959 -0.0651784 10.92 0.102472L11.0687 0.150533C11.8656 0.406179 12.4871 1.04018 12.6984 1.85007C12.8963 2.61292 12.9333 3.40849 12.8051 4.18565L12.1251 8.32099C12.123 8.33318 12.1236 8.34569 12.1268 8.35763C12.1301 8.36957 12.1359 8.38065 12.144 8.3901C12.152 8.39955 12.162 8.40714 12.1732 8.41233C12.1845 8.41753 12.1968 8.42021 12.2092 8.42018H17.5219C19.0604 8.42018 20.2255 9.80271 19.9629 11.3131L19.2399 15.4852C18.5855 19.2565 15.2009 21.9858 11.2769 21.9858H6.50872C5.88882 21.9853 5.29164 21.7531 4.835 21.3351C4.37837 20.9171 4.09545 20.3437 4.04208 19.7279L3.20825 10.1228C3.17435 9.7327 3.23384 9.34017 3.38184 8.9775C3.52984 8.61483 3.7621 8.29239 4.05952 8.03671L5.53642 6.7687C6.20821 6.19196 6.77333 5.63261 7.1282 4.96895C7.39169 4.47883 7.59552 3.95908 7.73537 3.42076L8.22357 1.54636C8.29992 1.25707 8.43856 0.987827 8.62985 0.757369C8.82114 0.526912 9.06049 0.340769 9.33125 0.211888ZM0.736481 8.4212C0.934694 8.41256 1.12859 8.48061 1.27767 8.61114C1.42674 8.74167 1.51947 8.92459 1.53647 9.12167L2.53133 20.6114C2.54818 20.7825 2.52988 20.9553 2.47753 21.1191C2.42518 21.2829 2.33989 21.4343 2.22687 21.5642C2.11384 21.694 1.97546 21.7995 1.82016 21.8743C1.66487 21.949 1.49593 21.9914 1.32366 21.9988C1.15138 22.0063 0.979395 21.9786 0.818198 21.9176C0.657 21.8565 0.509976 21.7633 0.386105 21.6437C0.262235 21.5241 0.164117 21.3806 0.0977461 21.2219C0.031375 21.0633 -0.001857 20.8928 8.00604e-05 20.7209V9.18712C-0.000100651 8.98926 0.0764215 8.79898 0.213655 8.65606C0.350888 8.51313 0.538213 8.42964 0.736481 8.4212Z" fill="white"/>
</svg>
