<svg width="169" height="124" viewBox="0 0 169 124" fill="none" xmlns="http://www.w3.org/2000/svg">
<path d="M1.26 100V82.27H4.74V100H1.26ZM7.26586 100V82.27H11.6159L14.0459 93.73L16.5059 82.27H20.8259V100H17.7659V86.74L15.2159 100H12.8459L10.3259 86.74V100H7.26586ZM22.3298 100L25.5098 82.27H30.4898L33.6098 100H29.7098L29.1698 96.73H26.5898L26.0798 100H22.3298ZM26.6498 94.99H29.1398L27.9098 85.36L26.6498 94.99ZM38.8179 100.33C38.1379 100.33 37.4979 100.22 36.8979 100C36.3179 99.78 35.8379 99.35 35.4579 98.71C35.0779 98.05 34.8879 97.07 34.8879 95.77V86.05C34.8879 85.01 35.0879 84.2 35.4879 83.62C35.9079 83.04 36.4879 82.64 37.2279 82.42C37.9679 82.18 38.8279 82.06 39.8079 82.06C40.7879 82.06 41.6479 82.18 42.3879 82.42C43.1479 82.64 43.7379 83.04 44.1579 83.62C44.5979 84.2 44.8179 85.01 44.8179 86.05V88.54H41.4279V85.87C41.4279 85.39 41.3579 85.03 41.2179 84.79C41.0979 84.53 40.9279 84.36 40.7079 84.28C40.4879 84.2 40.2179 84.16 39.8979 84.16C39.5979 84.16 39.3279 84.2 39.0879 84.28C38.8679 84.36 38.6879 84.53 38.5479 84.79C38.4279 85.03 38.3679 85.39 38.3679 85.87V96.61C38.3679 97.07 38.4279 97.43 38.5479 97.69C38.6879 97.93 38.8679 98.1 39.0879 98.2C39.3279 98.28 39.5979 98.32 39.8979 98.32C40.3579 98.32 40.7279 98.18 41.0079 97.9C41.2879 97.62 41.4279 97.19 41.4279 96.61V93.07H39.9879V91.09H44.8179V100H42.2079L42.0279 98.62C41.9879 98.68 41.9479 98.74 41.9079 98.8C41.8679 98.86 41.8379 98.91 41.8179 98.95C41.6179 99.29 41.2779 99.61 40.7979 99.91C40.3379 100.19 39.6779 100.33 38.8179 100.33ZM47.051 100V82.27H50.531V100H47.051ZM53.0569 100V82.27H56.0869L59.7769 93.01V82.27H62.8369V100H59.8069L56.1169 89.98V100H53.0569ZM65.3323 100V82.27H73.4923V84.73H68.9623V89.47H72.8023V92.2H68.9623V97.6H73.4923V100H65.3323ZM79.3123 100L82.4923 82.27H87.4723L90.5923 100H86.6923L86.1523 96.73H83.5723L83.0623 100H79.3123ZM83.6323 94.99H86.1223L84.8923 85.36L83.6323 94.99ZM92.0803 100V82.27H95.1103L98.8003 93.01V82.27H101.86V100H98.8303L95.1403 89.98V100H92.0803ZM106.696 100V92.47L103.366 82.27H106.846L108.376 87.58L108.586 88.72L108.796 87.58L110.446 82.27H113.626L110.176 92.65V100H106.696ZM116.966 100V84.73H114.206V82.27H123.206V84.73H120.446V100H116.966ZM124.746 100V82.27H128.226V89.53H131.136V82.27H134.616V100H131.136V92.11H128.226V100H124.746ZM137.139 100V82.27H140.619V100H137.139ZM143.145 100V82.27H146.175L149.865 93.01V82.27H152.925V100H149.895L146.205 89.98V100H143.145ZM159.14 100.33C158.46 100.33 157.82 100.22 157.22 100C156.64 99.78 156.16 99.35 155.78 98.71C155.4 98.05 155.21 97.07 155.21 95.77V86.05C155.21 85.01 155.41 84.2 155.81 83.62C156.23 83.04 156.81 82.64 157.55 82.42C158.29 82.18 159.15 82.06 160.13 82.06C161.11 82.06 161.97 82.18 162.71 82.42C163.47 82.64 164.06 83.04 164.48 83.62C164.92 84.2 165.14 85.01 165.14 86.05V88.54H161.75V85.87C161.75 85.39 161.68 85.03 161.54 84.79C161.42 84.53 161.25 84.36 161.03 84.28C160.81 84.2 160.54 84.16 160.22 84.16C159.92 84.16 159.65 84.2 159.41 84.28C159.19 84.36 159.01 84.53 158.87 84.79C158.75 85.03 158.69 85.39 158.69 85.87V96.61C158.69 97.07 158.75 97.43 158.87 97.69C159.01 97.93 159.19 98.1 159.41 98.2C159.65 98.28 159.92 98.32 160.22 98.32C160.68 98.32 161.05 98.18 161.33 97.9C161.61 97.62 161.75 97.19 161.75 96.61V93.07H160.31V91.09H165.14V100H162.53L162.35 98.62C162.31 98.68 162.27 98.74 162.23 98.8C162.19 98.86 162.16 98.91 162.14 98.95C161.94 99.29 161.6 99.61 161.12 99.91C160.66 100.19 160 100.33 159.14 100.33Z" fill="white"/>
<path d="M3.2 119.192C2.69867 119.192 2.256 119.133 1.872 119.016C1.49867 118.899 1.20533 118.659 0.992 118.296C0.778667 117.923 0.672 117.368 0.672 116.632V111.528C0.672 110.952 0.778667 110.515 0.992 110.216C1.20533 109.907 1.504 109.693 1.888 109.576C2.272 109.459 2.71467 109.4 3.216 109.4C3.71733 109.4 4.15467 109.464 4.528 109.592C4.912 109.709 5.216 109.923 5.44 110.232C5.664 110.531 5.776 110.963 5.776 111.528V116.616C5.776 117.373 5.664 117.933 5.44 118.296C5.216 118.659 4.912 118.899 4.528 119.016C4.144 119.133 3.70133 119.192 3.2 119.192ZM3.2 118.28C3.40267 118.28 3.584 118.253 3.744 118.2C3.904 118.136 4.02667 118.024 4.112 117.864C4.19733 117.704 4.24 117.469 4.24 117.16V111.48C4.24 111.181 4.19733 110.952 4.112 110.792C4.02667 110.621 3.904 110.509 3.744 110.456C3.584 110.392 3.40267 110.36 3.2 110.36C2.99733 110.36 2.816 110.392 2.656 110.456C2.50667 110.509 2.38933 110.621 2.304 110.792C2.21867 110.952 2.176 111.181 2.176 111.48V117.16C2.176 117.469 2.21867 117.704 2.304 117.864C2.38933 118.024 2.50667 118.136 2.656 118.2C2.816 118.253 2.99733 118.28 3.2 118.28ZM8.53312 119V109.544H9.86112L12.2131 115.912V109.544H13.5731V119H12.2291L9.89312 112.968V119H8.53312ZM16.4537 119V109.544H20.7097V110.632H18.0537V113.496H20.2457V114.696H18.0537V117.944H20.7097V119H16.4537ZM29.602 119.192C29.1113 119.192 28.6687 119.133 28.274 119.016C27.89 118.899 27.586 118.659 27.362 118.296C27.1487 117.923 27.042 117.368 27.042 116.632V111.528C27.042 110.952 27.1487 110.515 27.362 110.216C27.586 109.907 27.89 109.693 28.274 109.576C28.6687 109.459 29.1167 109.4 29.618 109.4C30.13 109.4 30.5727 109.464 30.946 109.592C31.3193 109.709 31.6127 109.923 31.826 110.232C32.0393 110.531 32.146 110.963 32.146 111.528V113.384H30.61V111.48C30.61 111.149 30.5673 110.909 30.482 110.76C30.3967 110.6 30.2793 110.493 30.13 110.44C29.9807 110.387 29.81 110.36 29.618 110.36C29.426 110.36 29.2553 110.387 29.106 110.44C28.9567 110.493 28.8393 110.6 28.754 110.76C28.6687 110.909 28.626 111.149 28.626 111.48V117.16C28.626 117.48 28.6687 117.72 28.754 117.88C28.8393 118.04 28.9567 118.147 29.106 118.2C29.2553 118.253 29.426 118.28 29.618 118.28C29.8207 118.28 29.9913 118.253 30.13 118.2C30.2793 118.147 30.3967 118.04 30.482 117.88C30.5673 117.72 30.61 117.48 30.61 117.16V115.464H32.146V116.616C32.146 117.373 32.0393 117.933 31.826 118.296C31.6127 118.659 31.3193 118.899 30.946 119.016C30.5727 119.133 30.1247 119.192 29.602 119.192ZM34.825 119V109.544H36.329V117.944H38.681V119H34.825ZM40.8706 119V109.544H42.3906V119H40.8706ZM47.7076 119.192C47.217 119.192 46.7743 119.133 46.3796 119.016C45.9956 118.899 45.6916 118.659 45.4676 118.296C45.2543 117.923 45.1476 117.368 45.1476 116.632V111.528C45.1476 110.952 45.2543 110.515 45.4676 110.216C45.6916 109.907 45.9956 109.693 46.3796 109.576C46.7743 109.459 47.2223 109.4 47.7236 109.4C48.2356 109.4 48.6783 109.464 49.0516 109.592C49.425 109.709 49.7183 109.923 49.9316 110.232C50.145 110.531 50.2516 110.963 50.2516 111.528V113.384H48.7156V111.48C48.7156 111.149 48.673 110.909 48.5876 110.76C48.5023 110.6 48.385 110.493 48.2356 110.44C48.0863 110.387 47.9156 110.36 47.7236 110.36C47.5316 110.36 47.361 110.387 47.2116 110.44C47.0623 110.493 46.945 110.6 46.8596 110.76C46.7743 110.909 46.7316 111.149 46.7316 111.48V117.16C46.7316 117.48 46.7743 117.72 46.8596 117.88C46.945 118.04 47.0623 118.147 47.2116 118.2C47.361 118.253 47.5316 118.28 47.7236 118.28C47.9263 118.28 48.097 118.253 48.2356 118.2C48.385 118.147 48.5023 118.04 48.5876 117.88C48.673 117.72 48.7156 117.48 48.7156 117.16V115.464H50.2516V116.616C50.2516 117.373 50.145 117.933 49.9316 118.296C49.7183 118.659 49.425 118.899 49.0516 119.016C48.6783 119.133 48.2303 119.192 47.7076 119.192ZM56.6426 119L54.5946 114.088L56.5946 109.544H58.2426L56.0986 114.088L58.3226 119H56.6426ZM52.9306 119V109.544H54.4506V119H52.9306ZM64.6 119V109.544H66.12V119H64.6ZM69.005 119V109.544H70.893L72.477 116.264L74.077 109.544H75.949V119H74.589V111.704L73.005 119H71.949L70.365 111.704V119H69.005ZM78.1923 119L80.0323 109.544H82.1763L83.9843 119H82.2883L81.9043 117.08H80.1763L79.8243 119H78.1923ZM80.2083 116.296H81.8883L81.0563 111.032L80.2083 116.296ZM88.2049 119.176C87.8422 119.176 87.5009 119.117 87.1809 119C86.8609 118.893 86.5995 118.675 86.3969 118.344C86.2049 118.003 86.1089 117.496 86.1089 116.824V111.544C86.1089 110.968 86.2155 110.531 86.4289 110.232C86.6422 109.923 86.9409 109.715 87.3249 109.608C87.7089 109.491 88.1515 109.432 88.6529 109.432C89.1542 109.432 89.5969 109.491 89.9809 109.608C90.3649 109.725 90.6635 109.939 90.8769 110.248C91.1009 110.547 91.2129 110.979 91.2129 111.544V112.824H89.7249V111.48C89.7249 111.16 89.6769 110.92 89.5809 110.76C89.4955 110.6 89.3729 110.493 89.2129 110.44C89.0635 110.387 88.8822 110.36 88.6689 110.36C88.4769 110.36 88.3009 110.387 88.1409 110.44C87.9809 110.493 87.8529 110.6 87.7569 110.76C87.6715 110.92 87.6289 111.16 87.6289 111.48V117.16C87.6289 117.48 87.6715 117.72 87.7569 117.88C87.8529 118.04 87.9809 118.147 88.1409 118.2C88.3009 118.253 88.4769 118.28 88.6689 118.28C88.9782 118.28 89.2289 118.189 89.4209 118.008C89.6235 117.816 89.7249 117.533 89.7249 117.16V115.24H88.7809V114.36H91.2129V119H90.0609L89.9809 118.2C89.9595 118.243 89.9329 118.291 89.9009 118.344C89.8689 118.387 89.8422 118.424 89.8209 118.456C89.6929 118.648 89.5009 118.819 89.2449 118.968C88.9995 119.107 88.6529 119.176 88.2049 119.176ZM93.9231 119V109.544H98.1791V110.632H95.5231V113.496H97.7151V114.696H95.5231V117.944H98.1791V119H93.9231ZM106.607 119.176C106.245 119.176 105.903 119.117 105.583 119C105.263 118.893 105.002 118.675 104.799 118.344C104.607 118.003 104.511 117.496 104.511 116.824V111.544C104.511 110.968 104.618 110.531 104.831 110.232C105.045 109.923 105.343 109.715 105.727 109.608C106.111 109.491 106.554 109.432 107.055 109.432C107.557 109.432 107.999 109.491 108.383 109.608C108.767 109.725 109.066 109.939 109.279 110.248C109.503 110.547 109.615 110.979 109.615 111.544V112.824H108.127V111.48C108.127 111.16 108.079 110.92 107.983 110.76C107.898 110.6 107.775 110.493 107.615 110.44C107.466 110.387 107.285 110.36 107.071 110.36C106.879 110.36 106.703 110.387 106.543 110.44C106.383 110.493 106.255 110.6 106.159 110.76C106.074 110.92 106.031 111.16 106.031 111.48V117.16C106.031 117.48 106.074 117.72 106.159 117.88C106.255 118.04 106.383 118.147 106.543 118.2C106.703 118.253 106.879 118.28 107.071 118.28C107.381 118.28 107.631 118.189 107.823 118.008C108.026 117.816 108.127 117.533 108.127 117.16V115.24H107.183V114.36H109.615V119H108.463L108.383 118.2C108.362 118.243 108.335 118.291 108.303 118.344C108.271 118.387 108.245 118.424 108.223 118.456C108.095 118.648 107.903 118.819 107.647 118.968C107.402 119.107 107.055 119.176 106.607 119.176ZM112.326 119V109.544H116.582V110.632H113.926V113.496H116.118V114.696H113.926V117.944H116.582V119H112.326ZM118.996 119V109.544H120.324L122.676 115.912V109.544H124.036V119H122.692L120.356 112.968V119H118.996ZM126.917 119V109.544H131.173V110.632H128.517V113.496H130.709V114.696H128.517V117.944H131.173V119H126.917ZM133.588 119V109.544H136.852C137.449 109.544 137.908 109.677 138.228 109.944C138.558 110.211 138.724 110.605 138.724 111.128V112.632C138.724 113.155 138.58 113.581 138.292 113.912C138.004 114.232 137.577 114.408 137.012 114.44C137.374 114.472 137.63 114.589 137.78 114.792C137.94 114.995 138.084 115.309 138.212 115.736L139.124 119H137.428L136.676 115.848C136.601 115.581 136.516 115.347 136.42 115.144C136.324 114.941 136.169 114.84 135.956 114.84H135.172V119H133.588ZM135.172 113.768H136.196C136.569 113.768 136.83 113.672 136.98 113.48C137.14 113.288 137.22 112.995 137.22 112.6V111.4C137.22 111.048 137.145 110.792 136.996 110.632C136.857 110.472 136.638 110.392 136.34 110.392H135.172V113.768ZM140.915 119L142.755 109.544H144.899L146.707 119H145.011L144.627 117.08H142.899L142.547 119H140.915ZM142.931 116.296H144.611L143.779 111.032L142.931 116.296ZM149.34 119V110.632H147.836V109.544H152.412V110.632H150.876V119H149.34ZM156.906 119.192C156.404 119.192 155.962 119.133 155.578 119.016C155.204 118.899 154.911 118.659 154.698 118.296C154.484 117.923 154.378 117.368 154.378 116.632V111.528C154.378 110.952 154.484 110.515 154.698 110.216C154.911 109.907 155.21 109.693 155.594 109.576C155.978 109.459 156.42 109.4 156.922 109.4C157.423 109.4 157.86 109.464 158.234 109.592C158.618 109.709 158.922 109.923 159.146 110.232C159.37 110.531 159.482 110.963 159.482 111.528V116.616C159.482 117.373 159.37 117.933 159.146 118.296C158.922 118.659 158.618 118.899 158.234 119.016C157.85 119.133 157.407 119.192 156.906 119.192ZM156.906 118.28C157.108 118.28 157.29 118.253 157.45 118.2C157.61 118.136 157.732 118.024 157.818 117.864C157.903 117.704 157.946 117.469 157.946 117.16V111.48C157.946 111.181 157.903 110.952 157.818 110.792C157.732 110.621 157.61 110.509 157.45 110.456C157.29 110.392 157.108 110.36 156.906 110.36C156.703 110.36 156.522 110.392 156.362 110.456C156.212 110.509 156.095 110.621 156.01 110.792C155.924 110.952 155.882 111.181 155.882 111.48V117.16C155.882 117.469 155.924 117.704 156.01 117.864C156.095 118.024 156.212 118.136 156.362 118.2C156.522 118.253 156.703 118.28 156.906 118.28ZM162.239 119V109.544H165.503C166.1 109.544 166.559 109.677 166.879 109.944C167.209 110.211 167.375 110.605 167.375 111.128V112.632C167.375 113.155 167.231 113.581 166.943 113.912C166.655 114.232 166.228 114.408 165.663 114.44C166.025 114.472 166.281 114.589 166.431 114.792C166.591 114.995 166.735 115.309 166.863 115.736L167.775 119H166.079L165.327 115.848C165.252 115.581 165.167 115.347 165.071 115.144C164.975 114.941 164.82 114.84 164.607 114.84H163.823V119H162.239ZM163.823 113.768H164.847C165.22 113.768 165.481 113.672 165.631 113.48C165.791 113.288 165.871 112.995 165.871 112.6V111.4C165.871 111.048 165.796 110.792 165.647 110.632C165.508 110.472 165.289 110.392 164.991 110.392H163.823V113.768Z" fill="#FFD970"/>
<path d="M84 6C78.6957 6 73.6086 8.13874 69.8579 11.9457C66.1071 15.7527 64 20.9161 64 26.3C64 33.202 67.4 39.263 72.5714 42.946V49.5C72.5714 50.2691 72.8724 51.0068 73.4083 51.5506C73.9441 52.0945 74.6708 52.4 75.4286 52.4H92.5714C93.3292 52.4 94.0559 52.0945 94.5917 51.5506C95.1276 51.0068 95.4286 50.2691 95.4286 49.5V42.946C100.6 39.263 104 33.202 104 26.3C104 20.9161 101.893 15.7527 98.1421 11.9457C94.3914 8.13874 89.3043 6 84 6ZM75.4286 61.1C75.4286 61.8691 75.7296 62.6068 76.2654 63.1506C76.8012 63.6945 77.528 64 78.2857 64H89.7143C90.472 64 91.1988 63.6945 91.7346 63.1506C92.2704 62.6068 92.5714 61.8691 92.5714 61.1V58.2H75.4286V61.1Z" fill="url(#paint0_linear_1100_212)"/>
<path d="M91.7823 0.0123857L75.3504 3.4348C75.2192 3.46214 75.1001 3.53509 75.0121 3.64216C74.9241 3.74924 74.872 3.88438 74.8641 4.02634L73.8534 22.1719C73.8478 22.2715 73.8641 22.371 73.9011 22.4626C73.938 22.5543 73.9946 22.6355 74.0662 22.6998C74.1378 22.7642 74.2226 22.8099 74.3138 22.8333C74.4049 22.8568 74.5 22.8573 74.5914 22.8349L79.1663 21.7127C79.5943 21.6077 79.9811 22.0085 79.8931 22.4659L78.5339 29.5406C78.4425 30.0167 78.8629 30.4238 79.3003 30.2825L82.1261 29.37C82.5641 29.2287 82.9851 29.637 82.8924 30.1135L80.7324 41.226C80.5973 41.9212 81.4671 42.3002 81.8298 41.7043L82.0722 41.3063L95.4619 12.9033C95.6862 12.4277 95.2994 11.8855 94.8082 11.9863L90.0989 12.9523C89.6565 13.043 89.28 12.605 89.4048 12.1449L92.4784 0.819612C92.6034 0.358396 92.2252 -0.0798574 91.7823 0.0123857Z" fill="url(#paint1_linear_1100_212)"/>
<defs>
<linearGradient id="paint0_linear_1100_212" x1="84" y1="6" x2="84" y2="64" gradientUnits="userSpaceOnUse">
<stop stop-color="white"/>
<stop offset="1" stop-color="white"/>
</linearGradient>
<linearGradient id="paint1_linear_1100_212" x1="84.6897" y1="0" x2="84.1733" y2="37.0406" gradientUnits="userSpaceOnUse">
<stop stop-color="#FFD970"/>
<stop offset="1" stop-color="#FFC66C"/>
</linearGradient>
</defs>
</svg>
