<svg width="13" height="12" viewBox="0 0 13 12" fill="none" xmlns="http://www.w3.org/2000/svg">
<path d="M6.5 0.25C6.69891 0.25 6.88968 0.329018 7.03033 0.46967C7.17098 0.610322 7.25 0.801088 7.25 1V5.25H11.5C11.6989 5.25 11.8897 5.32902 12.0303 5.46967C12.171 5.61032 12.25 5.80109 12.25 6C12.25 6.19891 12.171 6.38968 12.0303 6.53033C11.8897 6.67098 11.6989 6.75 11.5 6.75H7.25V11C7.25 11.1989 7.17098 11.3897 7.03033 11.5303C6.88968 11.671 6.69891 11.75 6.5 11.75C6.30109 11.75 6.11032 11.671 5.96967 11.5303C5.82902 11.3897 5.75 11.1989 5.75 11V6.75H1.5C1.30109 6.75 1.11032 6.67098 0.96967 6.53033C0.829018 6.38968 0.75 6.19891 0.75 6C0.75 5.80109 0.829018 5.61032 0.96967 5.46967C1.11032 5.32902 1.30109 5.25 1.5 5.25H5.75V1C5.75 0.801088 5.82902 0.610322 5.96967 0.46967C6.11032 0.329018 6.30109 0.25 6.5 0.25Z" fill="white"/>
</svg>
