<svg width="24" height="18" viewBox="0 0 24 18" fill="none" xmlns="http://www.w3.org/2000/svg">
<path id="Vector" opacity="0.4" d="M4.96635 0.818125C4.96635 0.601145 4.87916 0.393051 4.72396 0.239622C4.56877 0.0861931 4.35828 0 4.1388 0C3.91932 0 3.70883 0.0861931 3.55363 0.239622C3.39843 0.393051 3.31125 0.601145 3.31125 0.818125V15.2057L1.4145 13.3289C1.33756 13.2528 1.24622 13.1925 1.14569 13.1513C1.04516 13.1102 0.937408 13.089 0.828595 13.089C0.719783 13.089 0.612036 13.1102 0.511506 13.1513C0.410976 13.1925 0.319632 13.2528 0.24269 13.3289C0.165748 13.405 0.104714 13.4953 0.0630731 13.5947C0.0214323 13.694 -1.62144e-09 13.8006 0 13.9081C1.62144e-09 14.0157 0.0214323 14.1222 0.0630731 14.2216C0.104714 14.321 0.165748 14.4113 0.24269 14.4874L3.55289 17.7582L3.56448 17.7697C3.72006 17.9191 3.92893 18.0018 4.1458 18C4.36268 17.9981 4.57008 17.9119 4.72305 17.7599L8.03325 14.4874C8.11019 14.4114 8.17124 14.3212 8.21293 14.2219C8.25461 14.1226 8.2761 14.0162 8.27618 13.9087C8.27626 13.8012 8.25492 13.6948 8.21338 13.5954C8.17183 13.4961 8.11091 13.4058 8.03407 13.3297C7.95724 13.2536 7.86601 13.1933 7.76558 13.1521C7.66515 13.1109 7.55749 13.0896 7.44875 13.0895C7.34002 13.0895 7.23233 13.1106 7.13184 13.1516C7.03136 13.1927 6.94003 13.2529 6.86309 13.3289L4.96635 15.2057V0.818125ZM10.7592 15.5444C10.7592 15.7614 10.8464 15.9695 11.0016 16.1229C11.1568 16.2763 11.3673 16.3625 11.5867 16.3625H23.1724C23.3919 16.3625 23.6024 16.2763 23.7576 16.1229C23.9128 15.9695 24 15.7614 24 15.5444C24 15.3274 23.9128 15.1193 23.7576 14.9659C23.6024 14.8124 23.3919 14.7263 23.1724 14.7263H11.5867C11.3673 14.7263 11.1568 14.8124 11.0016 14.9659C10.8464 15.1193 10.7592 15.3274 10.7592 15.5444ZM11.5867 11.4538C11.3673 11.4538 11.1568 11.3676 11.0016 11.2141C10.8464 11.0607 10.7592 10.8526 10.7592 10.6356C10.7592 10.4186 10.8464 10.2106 11.0016 10.0571C11.1568 9.9037 11.3673 9.8175 11.5867 9.8175H19.8622C20.0817 9.8175 20.2922 9.9037 20.4474 10.0571C20.6026 10.2106 20.6898 10.4186 20.6898 10.6356C20.6898 10.8526 20.6026 11.0607 20.4474 11.2141C20.2922 11.3676 20.0817 11.4538 19.8622 11.4538H11.5867ZM11.5867 6.545C11.3673 6.545 11.1568 6.45881 11.0016 6.30538C10.8464 6.15195 10.7592 5.94386 10.7592 5.72688C10.7592 5.5099 10.8464 5.3018 11.0016 5.14837C11.1568 4.99495 11.3673 4.90875 11.5867 4.90875H16.552C16.7715 4.90875 16.982 4.99495 17.1372 5.14837C17.2924 5.3018 17.3796 5.5099 17.3796 5.72688C17.3796 5.94386 17.2924 6.15195 17.1372 6.30538C16.982 6.45881 16.7715 6.545 16.552 6.545H11.5867ZM11.5867 1.63625C11.3673 1.63625 11.1568 1.55006 11.0016 1.39663C10.8464 1.2432 10.7592 1.0351 10.7592 0.818125C10.7592 0.601145 10.8464 0.393051 11.0016 0.239622C11.1568 0.0861931 11.3673 0 11.5867 0H13.2418C13.4613 0 13.6718 0.0861931 13.827 0.239622C13.9822 0.393051 14.0694 0.601145 14.0694 0.818125C14.0694 1.0351 13.9822 1.2432 13.827 1.39663C13.6718 1.55006 13.4613 1.63625 13.2418 1.63625H11.5867Z" fill="black"/>
</svg>
