<svg width="25" height="24" viewBox="0 0 25 24" fill="none" xmlns="http://www.w3.org/2000/svg">
<path d="M14.2143 24C16.9422 24 19.5584 22.7357 21.4874 20.4853C23.4163 18.2348 24.5 15.1826 24.5 12C24.5 8.8174 23.4163 5.76516 21.4874 3.51472C19.5584 1.26428 16.9422 5.99801e-07 14.2143 0L14.2143 24Z" fill="url(#paint0_linear_93_11)"/>
<path d="M10.7857 24C8.05777 24 5.44156 22.7357 3.51262 20.4853C1.58367 18.2348 0.5 15.1826 0.5 12C0.5 8.8174 1.58367 5.76516 3.51262 3.51472C5.44156 1.26428 8.05777 1.26052e-06 10.7857 8.99206e-07V24Z" fill="url(#paint1_linear_93_11)"/>
<path d="M11.2878 5.4979C11.9573 4.82843 13.0427 4.82843 13.7122 5.4979L19.0021 10.7878C19.6716 11.4573 19.6716 12.5427 19.0021 13.2122L13.7122 18.5021C13.0427 19.1716 11.9573 19.1716 11.2878 18.5021L5.9979 13.2122C5.32843 12.5427 5.32843 11.4573 5.9979 10.7878L11.2878 5.4979Z" fill="#242123"/>
<defs>
<linearGradient id="paint0_linear_93_11" x1="12.5" y1="0" x2="12.5" y2="24" gradientUnits="userSpaceOnUse">
<stop stop-color="#9C70FF"/>
<stop offset="1" stop-color="#C970FF"/>
</linearGradient>
<linearGradient id="paint1_linear_93_11" x1="12.5" y1="0" x2="12.5" y2="24" gradientUnits="userSpaceOnUse">
<stop stop-color="#9C70FF"/>
<stop offset="1" stop-color="#C970FF"/>
</linearGradient>
</defs>
</svg>
