<svg width="153" height="37" viewBox="0 0 153 37" fill="none" xmlns="http://www.w3.org/2000/svg">
<path d="M27.945 20V6.7025H30.555V20H27.945ZM32.4494 20V6.7025H35.7119L37.5344 15.2975L39.3794 6.7025H42.6194V20H40.3244V10.055L38.4119 20H36.6344L34.7444 10.055V20H32.4494ZM43.7474 20L46.1324 6.7025H49.8674L52.2074 20H49.2824L48.8774 17.5475H46.9424L46.5599 20H43.7474ZM46.9874 16.2425H48.8549L47.9324 9.02L46.9874 16.2425ZM56.1134 20.2475C55.6034 20.2475 55.1234 20.165 54.6734 20C54.2384 19.835 53.8784 19.5125 53.5934 19.0325C53.3084 18.5375 53.1659 17.8025 53.1659 16.8275V9.5375C53.1659 8.7575 53.3159 8.15 53.6159 7.715C53.9309 7.28 54.3659 6.98 54.9209 6.815C55.4759 6.635 56.1209 6.545 56.8559 6.545C57.5909 6.545 58.2359 6.635 58.7909 6.815C59.3609 6.98 59.8034 7.28 60.1184 7.715C60.4484 8.15 60.6134 8.7575 60.6134 9.5375V11.405H58.0709V9.4025C58.0709 9.0425 58.0184 8.7725 57.9134 8.5925C57.8234 8.3975 57.6959 8.27 57.5309 8.21C57.3659 8.15 57.1634 8.12 56.9234 8.12C56.6984 8.12 56.4959 8.15 56.3159 8.21C56.1509 8.27 56.0159 8.3975 55.9109 8.5925C55.8209 8.7725 55.7759 9.0425 55.7759 9.4025V17.4575C55.7759 17.8025 55.8209 18.0725 55.9109 18.2675C56.0159 18.4475 56.1509 18.575 56.3159 18.65C56.4959 18.71 56.6984 18.74 56.9234 18.74C57.2684 18.74 57.5459 18.635 57.7559 18.425C57.9659 18.215 58.0709 17.8925 58.0709 17.4575V14.8025H56.9909V13.3175H60.6134V20H58.6559L58.5209 18.965C58.4909 19.01 58.4609 19.055 58.4309 19.1C58.4009 19.145 58.3784 19.1825 58.3634 19.2125C58.2134 19.4675 57.9584 19.7075 57.5984 19.9325C57.2534 20.1425 56.7584 20.2475 56.1134 20.2475ZM62.2883 20V6.7025H64.8983V20H62.2883ZM66.7927 20V6.7025H69.0652L71.8327 14.7575V6.7025H74.1277V20H71.8552L69.0877 12.485V20H66.7927ZM75.9992 20V6.7025H82.1192V8.5475H78.7217V12.1025H81.6017V14.15H78.7217V18.2H82.1192V20H75.9992ZM86.4842 20L88.8692 6.7025H92.6042L94.9442 20H92.0192L91.6142 17.5475H89.6792L89.2967 20H86.4842ZM89.7242 16.2425H91.5917L90.6692 9.02L89.7242 16.2425ZM96.0602 20V6.7025H98.3327L101.1 14.7575V6.7025H103.395V20H101.123L98.3552 12.485V20H96.0602ZM107.022 20V14.3525L104.524 6.7025H107.134L108.282 10.685L108.439 11.54L108.597 10.685L109.834 6.7025H112.219L109.632 14.4875V20H107.022ZM114.724 20V8.5475H112.654V6.7025H119.404V8.5475H117.334V20H114.724ZM120.56 20V6.7025H123.17V12.1475H125.352V6.7025H127.962V20H125.352V14.0825H123.17V20H120.56ZM129.854 20V6.7025H132.464V20H129.854ZM134.359 20V6.7025H136.631L139.399 14.7575V6.7025H141.694V20H139.421L136.654 12.485V20H134.359ZM146.355 20.2475C145.845 20.2475 145.365 20.165 144.915 20C144.48 19.835 144.12 19.5125 143.835 19.0325C143.55 18.5375 143.408 17.8025 143.408 16.8275V9.5375C143.408 8.7575 143.558 8.15 143.858 7.715C144.173 7.28 144.608 6.98 145.163 6.815C145.718 6.635 146.363 6.545 147.098 6.545C147.833 6.545 148.478 6.635 149.033 6.815C149.603 6.98 150.045 7.28 150.36 7.715C150.69 8.15 150.855 8.7575 150.855 9.5375V11.405H148.313V9.4025C148.313 9.0425 148.26 8.7725 148.155 8.5925C148.065 8.3975 147.938 8.27 147.773 8.21C147.608 8.15 147.405 8.12 147.165 8.12C146.94 8.12 146.738 8.15 146.558 8.21C146.393 8.27 146.258 8.3975 146.153 8.5925C146.063 8.7725 146.018 9.0425 146.018 9.4025V17.4575C146.018 17.8025 146.063 18.0725 146.153 18.2675C146.258 18.4475 146.393 18.575 146.558 18.65C146.738 18.71 146.94 18.74 147.165 18.74C147.51 18.74 147.788 18.635 147.998 18.425C148.208 18.215 148.313 17.8925 148.313 17.4575V14.8025H147.233V13.3175H150.855V20H148.898L148.763 18.965C148.733 19.01 148.703 19.055 148.673 19.1C148.643 19.145 148.62 19.1825 148.605 19.2125C148.455 19.4675 148.2 19.7075 147.84 19.9325C147.495 20.1425 147 20.2475 146.355 20.2475Z" fill="white"/>
<path d="M29.1 33.376C28.771 33.376 28.4805 33.3375 28.2285 33.2605C27.9835 33.1835 27.791 33.026 27.651 32.788C27.511 32.543 27.441 32.179 27.441 31.696V28.3465C27.441 27.9685 27.511 27.6815 27.651 27.4855C27.791 27.2825 27.987 27.1425 28.239 27.0655C28.491 26.9885 28.7815 26.95 29.1105 26.95C29.4395 26.95 29.7265 26.992 29.9715 27.076C30.2235 27.153 30.423 27.293 30.57 27.496C30.717 27.692 30.7905 27.9755 30.7905 28.3465V31.6855C30.7905 32.1825 30.717 32.55 30.57 32.788C30.423 33.026 30.2235 33.1835 29.9715 33.2605C29.7195 33.3375 29.429 33.376 29.1 33.376ZM29.1 32.7775C29.233 32.7775 29.352 32.76 29.457 32.725C29.562 32.683 29.6425 32.6095 29.6985 32.5045C29.7545 32.3995 29.7825 32.2455 29.7825 32.0425V28.315C29.7825 28.119 29.7545 27.9685 29.6985 27.8635C29.6425 27.7515 29.562 27.678 29.457 27.643C29.352 27.601 29.233 27.58 29.1 27.58C28.967 27.58 28.848 27.601 28.743 27.643C28.645 27.678 28.568 27.7515 28.512 27.8635C28.456 27.9685 28.428 28.119 28.428 28.315V32.0425C28.428 32.2455 28.456 32.3995 28.512 32.5045C28.568 32.6095 28.645 32.683 28.743 32.725C28.848 32.76 28.967 32.7775 29.1 32.7775ZM33.2299 33.25V27.0445H34.1014L35.6449 31.2235V27.0445H36.5374V33.25H35.6554L34.1224 29.2915V33.25H33.2299ZM39.0578 33.25V27.0445H41.8508V27.7585H40.1078V29.638H41.5463V30.4255H40.1078V32.557H41.8508V33.25H39.0578ZM48.9463 33.376C48.6243 33.376 48.3338 33.3375 48.0748 33.2605C47.8228 33.1835 47.6233 33.026 47.4763 32.788C47.3363 32.543 47.2663 32.179 47.2663 31.696V28.3465C47.2663 27.9685 47.3363 27.6815 47.4763 27.4855C47.6233 27.2825 47.8228 27.1425 48.0748 27.0655C48.3338 26.9885 48.6278 26.95 48.9568 26.95C49.2928 26.95 49.5833 26.992 49.8283 27.076C50.0733 27.153 50.2658 27.293 50.4058 27.496C50.5458 27.692 50.6158 27.9755 50.6158 28.3465V29.5645H49.6078V28.315C49.6078 28.098 49.5798 27.9405 49.5238 27.8425C49.4678 27.7375 49.3908 27.6675 49.2928 27.6325C49.1948 27.5975 49.0828 27.58 48.9568 27.58C48.8308 27.58 48.7188 27.5975 48.6208 27.6325C48.5228 27.6675 48.4458 27.7375 48.3898 27.8425C48.3338 27.9405 48.3058 28.098 48.3058 28.315V32.0425C48.3058 32.2525 48.3338 32.41 48.3898 32.515C48.4458 32.62 48.5228 32.69 48.6208 32.725C48.7188 32.76 48.8308 32.7775 48.9568 32.7775C49.0898 32.7775 49.2018 32.76 49.2928 32.725C49.3908 32.69 49.4678 32.62 49.5238 32.515C49.5798 32.41 49.6078 32.2525 49.6078 32.0425V30.9295H50.6158V31.6855C50.6158 32.1825 50.5458 32.55 50.4058 32.788C50.2658 33.026 50.0733 33.1835 49.8283 33.2605C49.5833 33.3375 49.2893 33.376 48.9463 33.376ZM53.0039 33.25V27.0445H53.9909V32.557H55.5344V33.25H53.0039ZM57.6013 33.25V27.0445H58.5988V33.25H57.6013ZM62.7181 33.376C62.3961 33.376 62.1056 33.3375 61.8466 33.2605C61.5946 33.1835 61.3951 33.026 61.2481 32.788C61.1081 32.543 61.0381 32.179 61.0381 31.696V28.3465C61.0381 27.9685 61.1081 27.6815 61.2481 27.4855C61.3951 27.2825 61.5946 27.1425 61.8466 27.0655C62.1056 26.9885 62.3996 26.95 62.7286 26.95C63.0646 26.95 63.3551 26.992 63.6001 27.076C63.8451 27.153 64.0376 27.293 64.1776 27.496C64.3176 27.692 64.3876 27.9755 64.3876 28.3465V29.5645H63.3796V28.315C63.3796 28.098 63.3516 27.9405 63.2956 27.8425C63.2396 27.7375 63.1626 27.6675 63.0646 27.6325C62.9666 27.5975 62.8546 27.58 62.7286 27.58C62.6026 27.58 62.4906 27.5975 62.3926 27.6325C62.2946 27.6675 62.2176 27.7375 62.1616 27.8425C62.1056 27.9405 62.0776 28.098 62.0776 28.315V32.0425C62.0776 32.2525 62.1056 32.41 62.1616 32.515C62.2176 32.62 62.2946 32.69 62.3926 32.725C62.4906 32.76 62.6026 32.7775 62.7286 32.7775C62.8616 32.7775 62.9736 32.76 63.0646 32.725C63.1626 32.69 63.2396 32.62 63.2956 32.515C63.3516 32.41 63.3796 32.2525 63.3796 32.0425V30.9295H64.3876V31.6855C64.3876 32.1825 64.3176 32.55 64.1776 32.788C64.0376 33.026 63.8451 33.1835 63.6001 33.2605C63.3551 33.3375 63.0611 33.376 62.7181 33.376ZM69.2117 33.25L67.8677 30.0265L69.1802 27.0445H70.2617L68.8547 30.0265L70.3142 33.25H69.2117ZM66.7757 33.25V27.0445H67.7732V33.25H66.7757ZM75.6938 33.25V27.0445H76.6913V33.25H75.6938ZM79.2145 33.25V27.0445H80.4535L81.493 31.4545L82.543 27.0445H83.7715V33.25H82.879V28.462L81.8395 33.25H81.1465L80.107 28.462V33.25H79.2145ZM85.8737 33.25L87.0812 27.0445H88.4882L89.6747 33.25H88.5617L88.3097 31.99H87.1757L86.9447 33.25H85.8737ZM87.1967 31.4755H88.2992L87.7532 28.021L87.1967 31.4755ZM93.0744 33.3655C92.8364 33.3655 92.6124 33.327 92.4024 33.25C92.1924 33.18 92.0209 33.0365 91.8879 32.8195C91.7619 32.5955 91.6989 32.263 91.6989 31.822V28.357C91.6989 27.979 91.7689 27.692 91.9089 27.496C92.0489 27.293 92.2449 27.1565 92.4969 27.0865C92.7489 27.0095 93.0394 26.971 93.3684 26.971C93.6974 26.971 93.9879 27.0095 94.2399 27.0865C94.492 27.1635 94.688 27.3035 94.8279 27.5065C94.975 27.7025 95.0485 27.986 95.0485 28.357V29.197H94.0719V28.315C94.0719 28.105 94.0404 27.9475 93.9774 27.8425C93.9214 27.7375 93.841 27.6675 93.736 27.6325C93.638 27.5975 93.5189 27.58 93.3789 27.58C93.2529 27.58 93.1374 27.5975 93.0324 27.6325C92.9274 27.6675 92.8434 27.7375 92.7804 27.8425C92.7244 27.9475 92.6964 28.105 92.6964 28.315V32.0425C92.6964 32.2525 92.7244 32.41 92.7804 32.515C92.8434 32.62 92.9274 32.69 93.0324 32.725C93.1374 32.76 93.2529 32.7775 93.3789 32.7775C93.5819 32.7775 93.7464 32.718 93.8724 32.599C94.0054 32.473 94.0719 32.2875 94.0719 32.0425V30.7825H93.4524V30.205H95.0485V33.25H94.2924L94.2399 32.725C94.2259 32.753 94.2084 32.7845 94.1874 32.8195C94.1665 32.8475 94.149 32.872 94.135 32.893C94.051 33.019 93.925 33.131 93.7569 33.229C93.5959 33.32 93.3684 33.3655 93.0744 33.3655ZM97.4571 33.25V27.0445H100.25V27.7585H98.5071V29.638H99.9456V30.4255H98.5071V32.557H100.25V33.25H97.4571ZM107.041 33.3655C106.803 33.3655 106.579 33.327 106.369 33.25C106.159 33.18 105.988 33.0365 105.855 32.8195C105.729 32.5955 105.666 32.263 105.666 31.822V28.357C105.666 27.979 105.736 27.692 105.876 27.496C106.016 27.293 106.212 27.1565 106.464 27.0865C106.716 27.0095 107.006 26.971 107.335 26.971C107.664 26.971 107.955 27.0095 108.207 27.0865C108.459 27.1635 108.655 27.3035 108.795 27.5065C108.942 27.7025 109.015 27.986 109.015 28.357V29.197H108.039V28.315C108.039 28.105 108.007 27.9475 107.944 27.8425C107.888 27.7375 107.808 27.6675 107.703 27.6325C107.605 27.5975 107.486 27.58 107.346 27.58C107.22 27.58 107.104 27.5975 106.999 27.6325C106.894 27.6675 106.81 27.7375 106.747 27.8425C106.691 27.9475 106.663 28.105 106.663 28.315V32.0425C106.663 32.2525 106.691 32.41 106.747 32.515C106.81 32.62 106.894 32.69 106.999 32.725C107.104 32.76 107.22 32.7775 107.346 32.7775C107.549 32.7775 107.713 32.718 107.839 32.599C107.972 32.473 108.039 32.2875 108.039 32.0425V30.7825H107.419V30.205H109.015V33.25H108.259L108.207 32.725C108.193 32.753 108.175 32.7845 108.154 32.8195C108.133 32.8475 108.116 32.872 108.102 32.893C108.018 33.019 107.892 33.131 107.724 33.229C107.563 33.32 107.335 33.3655 107.041 33.3655ZM111.424 33.25V27.0445H114.217V27.7585H112.474V29.638H113.912V30.4255H112.474V32.557H114.217V33.25H111.424ZM116.431 33.25V27.0445H117.303L118.846 31.2235V27.0445H119.739V33.25H118.857L117.324 29.2915V33.25H116.431ZM122.259 33.25V27.0445H125.052V27.7585H123.309V29.638H124.748V30.4255H123.309V32.557H125.052V33.25H122.259ZM127.267 33.25V27.0445H129.409C129.801 27.0445 130.102 27.132 130.312 27.307C130.529 27.482 130.637 27.741 130.637 28.084V29.071C130.637 29.414 130.543 29.694 130.354 29.911C130.165 30.121 129.885 30.2365 129.514 30.2575C129.752 30.2785 129.92 30.3555 130.018 30.4885C130.123 30.6215 130.217 30.828 130.301 31.108L130.9 33.25H129.787L129.293 31.1815C129.244 31.0065 129.188 30.8525 129.125 30.7195C129.062 30.5865 128.961 30.52 128.821 30.52H128.306V33.25H127.267ZM128.306 29.8165H128.978C129.223 29.8165 129.395 29.7535 129.493 29.6275C129.598 29.5015 129.65 29.309 129.65 29.05V28.2625C129.65 28.0315 129.601 27.8635 129.503 27.7585C129.412 27.6535 129.269 27.601 129.073 27.601H128.306V29.8165ZM132.706 33.25L133.913 27.0445H135.32L136.507 33.25H135.394L135.142 31.99H134.008L133.777 33.25H132.706ZM134.029 31.4755H135.131L134.585 28.021L134.029 31.4755ZM138.864 33.25V27.7585H137.877V27.0445H140.88V27.7585H139.872V33.25H138.864ZM144.459 33.376C144.13 33.376 143.84 33.3375 143.588 33.2605C143.343 33.1835 143.15 33.026 143.01 32.788C142.87 32.543 142.8 32.179 142.8 31.696V28.3465C142.8 27.9685 142.87 27.6815 143.01 27.4855C143.15 27.2825 143.346 27.1425 143.598 27.0655C143.85 26.9885 144.141 26.95 144.47 26.95C144.799 26.95 145.086 26.992 145.331 27.076C145.583 27.153 145.782 27.293 145.929 27.496C146.076 27.692 146.15 27.9755 146.15 28.3465V31.6855C146.15 32.1825 146.076 32.55 145.929 32.788C145.782 33.026 145.583 33.1835 145.331 33.2605C145.079 33.3375 144.788 33.376 144.459 33.376ZM144.459 32.7775C144.592 32.7775 144.711 32.76 144.816 32.725C144.921 32.683 145.002 32.6095 145.058 32.5045C145.114 32.3995 145.142 32.2455 145.142 32.0425V28.315C145.142 28.119 145.114 27.9685 145.058 27.8635C145.002 27.7515 144.921 27.678 144.816 27.643C144.711 27.601 144.592 27.58 144.459 27.58C144.326 27.58 144.207 27.601 144.102 27.643C144.004 27.678 143.927 27.7515 143.871 27.8635C143.815 27.9685 143.787 28.119 143.787 28.315V32.0425C143.787 32.2455 143.815 32.3995 143.871 32.5045C143.927 32.6095 144.004 32.683 144.102 32.725C144.207 32.76 144.326 32.7775 144.459 32.7775ZM148.589 33.25V27.0445H150.731C151.123 27.0445 151.424 27.132 151.634 27.307C151.851 27.482 151.96 27.741 151.96 28.084V29.071C151.96 29.414 151.865 29.694 151.676 29.911C151.487 30.121 151.207 30.2365 150.836 30.2575C151.074 30.2785 151.242 30.3555 151.34 30.4885C151.445 30.6215 151.54 30.828 151.624 31.108L152.222 33.25H151.109L150.616 31.1815C150.567 31.0065 150.511 30.8525 150.448 30.7195C150.385 30.5865 150.283 30.52 150.143 30.52H149.629V33.25H148.589ZM149.629 29.8165H150.301C150.546 29.8165 150.717 29.7535 150.815 29.6275C150.92 29.5015 150.973 29.309 150.973 29.05V28.2625C150.973 28.0315 150.924 27.8635 150.826 27.7585C150.735 27.6535 150.591 27.601 150.395 27.601H149.629V29.8165Z" fill="#FFD970"/>
<path d="M10.15 5C7.45805 5 4.87636 6.06937 2.97287 7.97287C1.06937 9.87636 0 12.4581 0 15.15C0 18.601 1.7255 21.6315 4.35 23.473V26.75C4.35 27.1346 4.50277 27.5034 4.7747 27.7753C5.04662 28.0472 5.41544 28.2 5.8 28.2H14.5C14.8846 28.2 15.2534 28.0472 15.5253 27.7753C15.7972 27.5034 15.95 27.1346 15.95 26.75V23.473C18.5745 21.6315 20.3 18.601 20.3 15.15C20.3 12.4581 19.2306 9.87636 17.3271 7.97287C15.4236 6.06937 12.8419 5 10.15 5ZM5.8 32.55C5.8 32.9346 5.95277 33.3034 6.2247 33.5753C6.49662 33.8472 6.86544 34 7.25 34H13.05C13.4346 34 13.8034 33.8472 14.0753 33.5753C14.3472 33.3034 14.5 32.9346 14.5 32.55V31.1H5.8V32.55Z" fill="url(#paint0_linear_1100_294)"/>
<path d="M14.0995 2.00619L5.76031 3.7174C5.69368 3.73107 5.63328 3.76754 5.5886 3.82108C5.54392 3.87462 5.5175 3.94219 5.51349 4.01317L5.00054 13.086C4.99772 13.1357 5.00601 13.1855 5.02476 13.2313C5.04352 13.2771 5.07221 13.3177 5.10856 13.3499C5.14492 13.3821 5.18794 13.4049 5.2342 13.4167C5.28047 13.4284 5.3287 13.4287 5.37508 13.4175L7.69686 12.8563C7.91407 12.8038 8.11038 13.0042 8.06569 13.233L7.37591 16.7703C7.32953 17.0084 7.5429 17.2119 7.76489 17.1412L9.19898 16.685C9.42125 16.6144 9.6349 16.8185 9.58786 17.0567L8.49168 22.613C8.42308 22.9606 8.86454 23.1501 9.04858 22.8522L9.17161 22.6532L15.9669 8.45163C16.0807 8.21386 15.8844 7.94273 15.6351 7.99317L13.2451 8.47617C13.0206 8.5215 12.8295 8.30248 12.8929 8.07246L14.4527 2.40981C14.5162 2.1792 14.3243 1.96007 14.0995 2.00619Z" fill="url(#paint1_linear_1100_294)"/>
<defs>
<linearGradient id="paint0_linear_1100_294" x1="10.15" y1="5" x2="10.15" y2="34" gradientUnits="userSpaceOnUse">
<stop stop-color="#9C70FF"/>
<stop offset="1" stop-color="#C970FF"/>
</linearGradient>
<linearGradient id="paint1_linear_1100_294" x1="10.5" y1="2" x2="10.2456" y2="20.5204" gradientUnits="userSpaceOnUse">
<stop stop-color="#FFD970"/>
<stop offset="1" stop-color="#FFC66C"/>
</linearGradient>
</defs>
</svg>
