<svg width="25" height="24" viewBox="0 0 25 24" fill="none" xmlns="http://www.w3.org/2000/svg">
<path d="M0.500014 1.28571C0.500014 0.944721 0.635473 0.617694 0.876591 0.376576C1.11771 0.135459 1.44474 0 1.78573 0L15.3474 0.339428C17.9581 0.978043 20.2789 2.47421 21.9384 4.58837C23.5978 6.70252 24.4998 9.31236 24.5 12V12.0034C24.5029 14.8248 23.5076 17.5562 21.6903 19.7143H17.9189C19.5582 18.5623 20.7879 16.918 21.4297 15.0199C22.0714 13.1218 22.0918 11.0687 21.4879 9.15821C20.884 7.24776 19.6872 5.57936 18.0711 4.39499C16.455 3.21063 14.5036 2.57189 12.5 2.57143H1.78744C1.44645 2.57143 1.11942 2.43597 0.878305 2.19485C0.637187 1.95373 0.501729 1.62671 0.501729 1.28571H0.500014ZM0.500014 12C0.500014 15.1826 1.7643 18.2348 4.01473 20.4853C6.26516 22.7357 9.31741 24 12.5 24H23.2143C23.5553 24 23.8823 23.8645 24.1234 23.6234C24.3645 23.3823 24.5 23.0553 24.5 22.7143C24.5 22.3733 24.3645 22.0462 24.1234 21.8051C23.8823 21.564 23.5553 21.4286 23.2143 21.4286H12.5C10.4976 21.4257 8.54807 20.7858 6.93349 19.6015C5.31892 18.4171 4.12308 16.7497 3.51904 14.8406C2.915 12.9315 2.93409 10.8797 3.57355 8.9822C4.21301 7.08466 5.43967 5.43982 7.07601 4.28571H3.3063C1.48972 6.44534 0.495657 9.17795 0.500014 12ZM12.5 6.85542C12.841 6.85542 13.168 6.99088 13.4091 7.232C13.6503 7.47312 13.7857 7.80014 13.7857 8.14114V10.7126H16.3571C16.6981 10.7126 17.0252 10.848 17.2663 11.0891C17.5074 11.3303 17.6429 11.6573 17.6429 11.9983C17.6429 12.3393 17.5074 12.6663 17.2663 12.9074C17.0252 13.1485 16.6981 13.284 16.3571 13.284H13.7857V15.8554C13.7857 16.1964 13.6503 16.5234 13.4091 16.7645C13.168 17.0057 12.841 17.1411 12.5 17.1411C12.159 17.1411 11.832 17.0057 11.5909 16.7645C11.3497 16.5234 11.2143 16.1964 11.2143 15.8554V13.284H8.64286C8.30187 13.284 7.97484 13.1485 7.73373 12.9074C7.49261 12.6663 7.35715 12.3393 7.35715 11.9983C7.35715 11.6573 7.49261 11.3303 7.73373 11.0891C7.97484 10.848 8.30187 10.7126 8.64286 10.7126H11.2143V8.14114C11.2143 7.80014 11.3497 7.47312 11.5909 7.232C11.832 6.99088 12.159 6.85542 12.5 6.85542Z" fill="white"/>
</svg>
